<?xml version="1.0" encoding="utf-8"?>
<!-- Generator: Adobe Illustrator 21.1.0, SVG Export Plug-In . SVG Version: 6.00 Build 0)  -->
<svg version="1.1" xmlns="http://www.w3.org/2000/svg" xmlns:xlink="http://www.w3.org/1999/xlink" x="0px" y="0px"
	 viewBox="0 0 26 26" style="enable-background:new 0 0 26 26;" xml:space="preserve">
<style type="text/css">
	.st0{display:none;}
	.st1{fill:#0000FF;}
</style>
<g id="Слой_2">
</g>
<g id="Слой_1">
	<path class="st0" d="M4.5,13.3999996c3.0999999,0,6,1.1000004,8.3000002,3c2.1999998-1.8000002,5.0999994-3,8.3000002-3
		c1.7999992,0,3.5,0.3999996,5,1V-1H0v15.1999998C1.4,13.6999998,2.9000001,13.3999996,4.5,13.3999996z"/>
	<path class="st1" d="M5,14c3.0203857,0,5.7929077,1.0393066,8,2.7672729C15.2070923,15.0393066,17.9796143,14,21,14
		c1.7723389,0,3.4604492,0.3573608,5,0.9995728V0H0v14.9995728C1.5395508,14.3573608,3.2276611,14,5,14z"/>
</g>
</svg>
